<?xml version="1.0" standalone="no"?>
<!DOCTYPE svg PUBLIC "-//W3C//DTD SVG 20010904//EN"
 "http://www.w3.org/TR/2001/REC-SVG-20010904/DTD/svg10.dtd">
<svg version="1.0" xmlns="http://www.w3.org/2000/svg"
 width="1454.000000pt" height="1454.000000pt" viewBox="0 0 1454.000000 1454.000000"
 preserveAspectRatio="xMidYMid meet">
<metadata>
Created by potrace 1.14, written by Peter Selinger 2001-2017
</metadata>
<g transform="translate(0.000000,1454.000000) scale(0.100000,-0.100000)"
fill="#000000" stroke="none">
<path d="M1149 12976 c-2 -2 -26 -6 -54 -9 -146 -15 -324 -73 -455 -148 -114
-66 -271 -215 -357 -340 -100 -146 -200 -374 -229 -524 -5 -22 -9 -42 -9 -45
-33 -134 -48 -379 -33 -528 32 -315 183 -648 461 -1015 51 -67 102 -133 114
-147 12 -14 47 -56 80 -95 58 -70 334 -350 408 -416 22 -19 74 -61 115 -94 41
-33 79 -64 85 -68 11 -9 287 -203 410 -288 554 -384 971 -675 973 -681 2 -4 8
-8 13 -8 5 0 40 -22 77 -48 73 -52 199 -140 565 -393 131 -90 268 -185 305
-211 37 -26 74 -52 82 -58 83 -56 964 -670 1185 -826 66 -46 154 -107 195
-136 82 -57 259 -182 275 -195 6 -5 105 -76 220 -158 116 -82 212 -152 215
-155 3 -3 46 -32 95 -65 50 -33 92 -62 95 -65 3 -3 14 -10 25 -17 11 -7 89
-56 174 -109 429 -271 675 -376 966 -414 63 -8 237 -6 293 4 17 3 47 8 65 11
17 3 55 13 82 21 28 9 60 17 72 20 37 7 235 90 318 132 299 154 551 319 1167
762 142 102 294 210 338 240 44 30 145 100 223 155 79 55 322 224 541 375 218
151 425 295 460 320 35 25 138 97 230 160 92 63 240 166 329 228 89 63 198
138 242 169 44 30 118 81 165 114 47 32 128 88 180 124 52 36 136 94 185 129
50 34 216 150 370 257 154 107 300 208 323 224 109 76 235 164 322 223 114 78
299 216 355 263 211 180 382 351 515 514 36 44 67 82 70 85 17 15 165 226 209
297 100 162 215 407 246 528 5 17 9 35 11 40 16 53 43 169 48 206 4 25 9 59
12 75 20 107 25 356 9 474 -36 270 -171 531 -382 737 -181 176 -378 284 -640
350 -64 16 -447 17 -6209 20 -3377 2 -6143 1 -6145 -1z"/>
<path d="M6 6016 c0 -1805 4 -3301 8 -3326 4 -25 9 -58 12 -75 53 -325 271
-646 574 -847 130 -86 307 -159 440 -182 19 -3 46 -9 60 -13 37 -10 12225 -12
12298 -2 138 19 191 31 293 69 285 104 564 353 711 635 41 80 103 259 112 325
3 25 9 56 13 70 6 22 13 6620 8 6620 -2 0 -65 -62 -141 -138 -146 -145 -262
-250 -379 -342 -38 -30 -72 -57 -75 -60 -11 -11 -120 -90 -215 -155 -310 -212
-457 -311 -475 -321 -11 -6 -28 -18 -37 -26 -15 -12 -281 -194 -443 -302 -25
-16 -47 -32 -50 -35 -3 -4 -13 -10 -22 -16 -16 -9 -242 -163 -343 -233 -22
-15 -103 -71 -180 -123 -119 -81 -323 -222 -630 -434 -38 -26 -104 -71 -145
-100 -123 -85 -320 -222 -570 -397 -129 -90 -266 -186 -305 -213 -38 -27 -95
-67 -127 -89 -31 -23 -64 -47 -75 -54 -10 -6 -133 -94 -273 -195 -140 -100
-265 -189 -277 -197 -24 -17 -469 -339 -522 -379 -19 -13 -55 -39 -80 -56 -25
-17 -84 -57 -131 -89 -127 -87 -256 -167 -340 -210 -41 -22 -88 -47 -105 -56
-88 -49 -538 -245 -584 -255 -9 -2 -43 -13 -76 -25 -67 -23 -232 -67 -291 -76
-22 -3 -41 -7 -44 -9 -3 -2 -37 -6 -75 -10 -39 -4 -79 -9 -90 -11 -29 -6 -294
-6 -335 0 -19 3 -57 8 -85 11 -404 49 -1064 329 -1525 648 -52 36 -100 70
-106 75 -5 5 -21 15 -35 22 -13 7 -26 16 -29 20 -3 3 -36 28 -75 55 -81 56
-348 249 -386 279 -14 12 -36 28 -49 36 -13 8 -35 24 -49 36 -14 11 -114 83
-221 159 -107 76 -217 155 -245 175 -53 39 -253 180 -475 336 -74 52 -144 101
-155 108 -18 13 -649 451 -685 476 -8 6 -58 40 -110 76 -52 36 -107 74 -122
83 -16 9 -28 19 -28 24 0 4 -5 7 -12 7 -6 0 -29 14 -52 31 -23 17 -120 85
-216 151 -96 66 -222 153 -278 192 -57 39 -128 87 -157 106 -29 19 -100 67
-157 106 -56 39 -137 94 -178 122 -41 28 -79 55 -85 59 -5 5 -53 37 -105 72
-123 83 -303 206 -360 246 -25 17 -121 83 -215 145 -93 63 -174 118 -180 122
-5 5 -59 45 -120 90 -60 46 -112 85 -115 88 -5 5 -99 85 -154 131 -16 13 -97
92 -180 175 l-151 151 1 -3281z"/>
</g>
</svg>
