<?xml version="1.0" standalone="no"?>
<!DOCTYPE svg PUBLIC "-//W3C//DTD SVG 20010904//EN"
 "http://www.w3.org/TR/2001/REC-SVG-20010904/DTD/svg10.dtd">
<svg version="1.0" xmlns="http://www.w3.org/2000/svg"
 width="301.000000pt" height="301.000000pt" viewBox="0 0 301.000000 301.000000"
 preserveAspectRatio="xMidYMid meet">
<metadata>
Created by potrace 1.14, written by Peter Selinger 2001-2017
</metadata>
<g transform="translate(0.000000,301.000000) scale(0.100000,-0.100000)"
fill="#000000" stroke="none">
<path d="M1385 2998 c-352 -30 -689 -184 -934 -428 -47 -47 -111 -119 -143
-160 l-56 -75 174 -176 c146 -147 174 -180 174 -205 0 -25 -29 -58 -187 -216
-104 -102 -197 -190 -208 -196 -38 -19 -87 17 -88 64 0 21 35 61 157 183 86
86 156 161 156 166 0 6 -56 66 -124 134 l-124 124 -27 -54 c-49 -96 -109 -268
-121 -349 -3 -19 -7 -41 -9 -48 -25 -73 -25 -368 -1 -512 80 -473 381 -878
811 -1090 164 -81 315 -129 465 -147 113 -14 367 -8 470 11 195 35 403 119
565 228 109 73 125 87 241 204 274 276 427 649 428 1044 0 80 -9 199 -19 251
-3 13 -8 40 -11 59 -15 87 -67 236 -121 347 -143 296 -386 541 -682 688 -167
84 -372 140 -546 151 -44 3 -96 6 -115 7 -19 2 -75 -1 -125 -5z m-567 -810
c101 -101 190 -194 197 -208 10 -19 10 -31 3 -45 -15 -30 -359 -374 -388 -389
-49 -26 -107 22 -89 73 5 15 79 96 164 181 l155 155 -161 161 c-127 127 -161
167 -161 188 0 37 29 66 65 66 26 0 57 -26 215 -182z m1828 -190 c49 -27 89
-72 102 -115 9 -29 12 -186 12 -559 0 -483 -2 -522 -19 -559 -23 -49 -54 -79
-106 -101 -37 -15 -119 -17 -982 -17 l-942 1 -46 22 c-45 22 -81 61 -102 110
-6 16 -11 143 -11 335 l-2 311 49 -1 48 0 2 -275 c3 -308 4 -329 14 -333 9 -3
637 482 636 491 0 4 -70 66 -156 137 -86 72 -173 146 -194 165 l-39 35 30 34
30 34 47 -39 c55 -45 198 -167 228 -193 11 -10 56 -48 100 -86 44 -37 103 -86
130 -110 182 -156 178 -155 292 -59 43 36 87 73 98 82 36 30 220 187 225 192
3 3 48 41 100 85 52 44 106 89 120 102 14 12 77 65 140 119 63 53 117 101 118
106 2 4 -320 8 -715 8 l-718 0 -3 49 -2 49 742 -2 c682 -1 746 -2 774 -18z"/>
<path d="M2605 1815 c-40 -35 -190 -162 -375 -319 -117 -99 -220 -188 -220
-191 0 -1 37 -31 83 -66 45 -34 189 -146 320 -247 131 -101 240 -182 243 -180
2 3 3 239 2 525 l-3 521 -50 -43z"/>
<path d="M1097 1026 c-153 -118 -296 -229 -318 -248 l-41 -33 899 2 c494 1
906 2 917 2 12 1 -5 19 -50 54 -273 212 -514 397 -541 416 l-31 23 -95 -80
c-104 -87 -146 -107 -208 -97 -32 6 -116 56 -139 84 -8 10 -107 91 -111 91 -2
0 -129 -96 -282 -214z"/>
</g>
</svg>
