<svg id="Layer_1_copy" data-name="Layer 1 copy" xmlns="http://www.w3.org/2000/svg" viewBox="0 0 770.61 219.65"><defs><style>.cls-1{fill:#fff;}</style></defs><title>Logo</title><path class="cls-1" d="M518.81,58.36H745.29V197.77H518.81ZM631.72,196.61h50c13.3,0,26.61.06,39.91,0,12.21-.06,20.55-8.38,20.56-20.45q0-48.15,0-96.3a19.73,19.73,0,0,0-3.76-12.1c-4.34-5.89-10.34-8.2-17.54-8.19q-89.16,0-178.32,0c-.77,0-1.55,0-2.33,0-11.27.78-19,8.9-19,20.15q0,48.29,0,96.56a22.68,22.68,0,0,0,.86,6.35c2.59,8.7,10.19,13.92,20.12,13.92Q587,196.63,631.72,196.61Z"/><path d="M631.72,196.61q-44.7,0-89.41,0c-9.93,0-17.53-5.22-20.12-13.92a22.68,22.68,0,0,1-.86-6.35q-.09-48.27,0-96.56c0-11.25,7.73-19.37,19-20.15.78,0,1.56,0,2.33,0q89.16,0,178.32,0c7.2,0,13.2,2.3,17.54,8.19a19.73,19.73,0,0,1,3.76,12.1q0,48.15,0,96.3c0,12.07-8.35,20.39-20.56,20.45-13.3.08-26.61,0-39.91,0ZM539.54,69.52c1,.88,1.4,1.28,1.85,1.66Q583.5,107,625.6,142.71c4.26,3.62,8.16,3.57,12.49-.12l83.81-71.2a18.12,18.12,0,0,1,1.87-1.21l-.47-.66Zm119.94,67.75c-5.15,4.36-10.2,8.66-15.28,12.94-8.3,7-16.68,6.95-24.93-.05l-15.21-12.9-63.87,49.31H723.35Zm-63.08-6.51L531.87,76c-1.17,3.28-1,102.14.17,104.53C553.41,164,574.75,147.48,596.4,130.76ZM732,75.63l-64.89,55.13L732,180.89Z"/><path class="cls-1" d="M539.54,69.52H723.3l.47.66a18.12,18.12,0,0,0-1.87,1.21l-83.81,71.2c-4.33,3.69-8.23,3.74-12.49.12Q583.48,107,541.39,71.18C540.94,70.8,540.51,70.4,539.54,69.52Z"/><path class="cls-1" d="M659.48,137.27l63.87,49.3H540.19l63.87-49.31,15.21,12.9c8.25,7,16.63,7,24.93.05C649.28,145.93,654.33,141.63,659.48,137.27Z"/><path class="cls-1" d="M596.4,130.76c-21.65,16.72-43,33.2-64.36,49.72-1.14-2.39-1.34-101.25-.17-104.53Z"/><path class="cls-1" d="M732,75.63V180.89l-64.89-50.13Z"/><path d="M484.46,113.45A12.52,12.52,0,0,1,475.8,92c5.3-5.4,10.75-10.81,16-16l4.31-4.3c1.91-1.9,3.83-3.79,5.8-5.73l-6.7-6.69C488.89,52.93,482.35,46.4,476,39.93a12.75,12.75,0,0,1-3.43-12.55,12.45,12.45,0,0,1,9.32-8.65,12.29,12.29,0,0,1,2.87-.34A11.86,11.86,0,0,1,493.2,22c10.64,10.59,23,22.92,35.16,35.17a12.08,12.08,0,0,1,0,17.55c-11.3,11.37-23.07,23.15-35,35A12.52,12.52,0,0,1,484.46,113.45Z"/><path class="cls-1" d="M484.72,23.89a6.4,6.4,0,0,1,4.6,2q17.61,17.54,35.13,35.15a6.58,6.58,0,0,1,0,9.79q-17.43,17.55-35,35a7,7,0,0,1-5,2.14,7,7,0,0,1-4.73-12.08c6.7-6.82,13.5-13.55,20.27-20.3,3.14-3.13,6.31-6.23,9.67-9.54-.79-.84-1.36-1.47-1.95-2.06-9.29-9.3-18.61-18.56-27.85-27.91-4.2-4.25-2.41-10.64,3.25-12a6.85,6.85,0,0,1,1.6-.19m0-11a17.65,17.65,0,0,0-4.13.49,17.86,17.86,0,0,0-13.34,12.48A18.15,18.15,0,0,0,472,43.79c6.42,6.5,13,13,19.31,19.37l2.76,2.76-1.87,1.86-4.36,4.34c-5.25,5.23-10.69,10.64-16,16-7.21,7.34-7.23,18.3-.05,25.49a17.75,17.75,0,0,0,12.63,5.3,18,18,0,0,0,12.73-5.33c12-11.89,23.76-23.67,35-35a17.58,17.58,0,0,0,0-25.29C520.09,41,507.72,28.7,497.08,18.1a17.48,17.48,0,0,0-12.36-5.21Z"/><path d="M526.32,113.43a12.12,12.12,0,0,1-8.41-3.5,12.26,12.26,0,0,1-3.88-8.69,13.69,13.69,0,0,1,4.38-9.83q12.74-12.78,25.53-25.51l-.82-.82-13-13-2.9-2.89c-3-3-6.13-6.11-9.17-9.21-5.2-5.3-5.35-12.82-.35-17.87a12.25,12.25,0,0,1,8.75-3.76,13.12,13.12,0,0,1,9.2,4C548.14,34.78,559.37,46,570,56.71c5.56,5.6,5.47,12.9-.21,18.6Q552.9,92.24,536,109.13A13.74,13.74,0,0,1,526.32,113.43Z"/><path class="cls-1" d="M526.45,23.88a7.57,7.57,0,0,1,5.32,2.4Q549,43.38,566.09,60.59c3.47,3.49,3.34,7.3-.19,10.84Q549,88.35,532.07,105.24a8.25,8.25,0,0,1-5.75,2.69,6.55,6.55,0,0,1-4.59-2c-3.12-3-2.92-7.18.57-10.69Q536,81.58,549.7,67.92A21.25,21.25,0,0,1,552,66.19l-18-18c-4-4-8-8-12-12.06-3.15-3.21-3.25-7.24-.37-10.15a6.76,6.76,0,0,1,4.84-2.13m0-11h0a17.72,17.72,0,0,0-12.66,5.39c-7.09,7.17-6.94,18.17.33,25.59,3,3.11,6.17,6.22,9.18,9.22L526.23,56l9.92,9.9c-7.73,7.7-14.85,14.82-21.63,21.62a19.36,19.36,0,0,0-6,13.77,18.12,18.12,0,0,0,17.79,17.64,19.23,19.23,0,0,0,13.52-5.9c9.24-9.23,21.45-21.41,33.84-33.83,7.79-7.81,7.88-18.65.22-26.36-10.63-10.71-21.87-22-34.38-34.37a18.53,18.53,0,0,0-13.07-5.59Z"/><path d="M20.7,180.07V74.38H42.82V180.07Z"/><path d="M58.57,101.55H79.22v14h.44c4.18-9.74,12.45-15.45,24.54-15.45,17.43,0,27.24,11,27.24,29.37v50.61H110.06V133.93c0-10.26-4.84-16.12-14.43-16.12S80,124.84,80,135v45H58.57Z"/><path d="M167,166.59h-.44v13.48H145.51V74.38h21.38v40.8h.44c4.32-9.31,13-14.87,24.25-14.87,19.77,0,31.93,15.16,31.93,40.5s-12.09,40.5-31.86,40.5C180.15,181.31,171.36,175.75,167,166.59Zm-.22-25.78c0,14.21,7,23.29,17.43,23.29,10.7,0,17.36-8.93,17.36-23.29s-6.74-23.36-17.36-23.36C173.92,117.45,166.82,126.75,166.82,140.81Z"/><path d="M231.71,140.74c0-25.42,15.38-40.87,38.89-40.87s38.9,15.38,38.9,40.87c0,25.85-15.17,41-38.9,41S231.71,166.52,231.71,140.74Zm56,.07c0-15.6-6.74-24.61-17.14-24.61s-17.21,9-17.21,24.61,6.67,24.61,17.21,24.61S287.74,156.56,287.74,140.81Z"/><path d="M350.51,152.82l-14.72,27.25H313.3L337.91,141l-24.46-39.41h24.1l14.13,26.52h.44L366,101.55h23.29l-24.54,38.82,24.32,39.7H365.89L351,152.82Z"/><path d="M392.77,140.66c0-24.9,12.45-40.35,32.16-40.35,11.35,0,20.14,6,23.95,14.72h.44V74.38H470.7V180.07H449.61V166.59h-.37c-3.81,8.65-12.89,14.72-24.46,14.72C405.15,181.31,392.77,165.79,392.77,140.66Zm21.9.15c0,14.43,6.59,23.29,17.36,23.29s17.43-8.93,17.43-23.29-6.81-23.36-17.43-23.36S414.67,126.46,414.67,140.81Z"/></svg>