<svg xmlns="http://www.w3.org/2000/svg" viewBox="0 0 721.66 172.74"><title>LogoSingle</title><g id="Layer_2" data-name="Layer 2"><g id="Layer_1_copy" data-name="Layer 1 copy"><path d="M0,50.43H22.21V156.27H0Z"/><path d="M703.31,46.07a7.45,7.45,0,0,0-1.17-.47,6.48,6.48,0,0,0-1.08,0H558.65a18.23,18.23,0,0,0-.83-9.92c.52,0,.89-.08,1.26-.08q71,0,141.95,0c9.54,0,17.36,5.54,19.75,14.13a25,25,0,0,1,.86,6.62q.06,48.1,0,96.23c0,11.2-7.83,19.59-19,20-7.63.28-15.27.1-22.9.13h-158c-5.89,0-11.21-1.62-15.46-5.91a18.62,18.62,0,0,1-5.52-13.41c-.09-19.48-.06-39-.07-58.43,0-.16,0-.32.05-.62a18.41,18.41,0,0,0,9.72.09c.12,20.75-.07,41.39.83,62.33l64.6-49.91L535.92,72.92l6.87-6.86c.11.09.45.34.78.62l61,51.79c.36.31.73.62,1.11.91,3.66,2.8,7.23,2.88,10.87.06,2.5-1.93,4.86-4,7.27-6.08l65-55.21c4-3.37,7.91-6.74,11.89-10.09C701.42,47.42,702.25,46.86,703.31,46.07Zm-.52,116.57-63.93-49.35c-2.34,2-4.62,3.93-6.91,5.86-3.37,2.83-6.66,5.75-10.14,8.43-3.73,2.85-7.94,4.43-12.76,3.74a19.34,19.34,0,0,1-9.45-4.38c-2.76-2.24-5.45-4.58-8.17-6.88l-8-6.77-63.92,49.35Zm-56.33-55.8L711.39,157V51.68Z"/><path d="M146.56,91.19a5.35,5.35,0,0,0,.44-.62c5.29-10.15,14-14.47,25.08-14.18,13.45.35,23.31,7.91,27.86,21.06,2.65,7.64,3.27,15.52,2.86,23.52-.4,7.59-1.87,14.91-5.68,21.59-5.63,9.86-14.29,14.64-25.53,14.85-6.66.13-12.82-1.5-18.14-5.7a24.19,24.19,0,0,1-6.66-8.23,1.29,1.29,0,0,0-.69-.61v13.27H124.93V50.52h21.35V91.13Zm-.37,25.9c0,.48.05,1.2.1,1.92.3,5.18,1.41,10.13,4.48,14.44a15,15,0,0,0,12.38,6.68c7.31.14,12.86-3.65,15.6-10.67a35.72,35.72,0,0,0,1.31-20.86,20,20,0,0,0-6.32-11.43c-7.24-6.19-18.26-4.31-23.5,4C147.21,106,146.33,111.31,146.19,117.09Z"/><path d="M428.62,90.93V50.5h21.43V156.15H429V143l-.23-.09a6.29,6.29,0,0,0-.48.67c-3.87,7.57-10.21,11.87-18.41,13.35s-16.17.18-23.19-4.76c-5.92-4.17-9.52-10-11.77-16.79a61.26,61.26,0,0,1-2.51-24.4,47.4,47.4,0,0,1,4.86-18.16c6.16-12.07,17.55-17.45,30-16.25,8.85.85,15.72,5,20.17,12.82.3.55.58,1.11.87,1.67Zm.23,25.78c0-.54-.05-1.26-.09-2a29.34,29.34,0,0,0-3.62-13.28,15.89,15.89,0,0,0-27.64.25,29,29,0,0,0-3.3,12c-.38,5.57,0,11,2.28,16.22,2.7,6.22,7.33,9.92,14.25,10.16,7.21.25,12.24-3.21,15.36-9.6C428.19,126.22,428.73,121.6,428.85,116.71Z"/><path d="M288.93,116.87a50.91,50.91,0,0,1-3.51,19.21c-4.21,10.11-11.57,16.84-22.07,19.91a46.14,46.14,0,0,1-28.3-.5,32.14,32.14,0,0,1-20.36-19.19,50.82,50.82,0,0,1-.42-37.59c4.52-12.07,13.54-19.22,26.08-21.83a44.51,44.51,0,0,1,25.36,1.75c11.9,4.55,18.89,13.46,21.74,25.66,1,4.09,1.24,8.35,1.82,12.53Zm-56.15,0-.3.06c.51,3.46.83,7,1.57,10.39a19,19,0,0,0,6.34,10.89c6,5,18.57,5.31,23.66-6,4.07-9,3.95-18.31,1.23-27.64a17.45,17.45,0,0,0-6.88-9.83A15.32,15.32,0,0,0,236.14,101C233.56,106,232.87,111.36,232.78,116.88Z"/><path d="M110.82,156.17H89.4V154.6c0-14.92,0-29.84,0-44.76a25.91,25.91,0,0,0-.83-6.38,11.69,11.69,0,0,0-9.82-9.17c-6-1.08-11.41.06-15.52,4.94a17.28,17.28,0,0,0-3.78,10.65c-.07,1.43-.09,2.88-.09,4.31v41.95H38V77.65H58.58v13.8l.36.09c.17-.32.37-.62.53-.94,4.15-8.7,11.13-13.34,20.64-14.28A31.92,31.92,0,0,1,95.2,78.15c8.27,3.26,12.84,9.64,14.64,18.09a46.67,46.67,0,0,1,1,9.51c.09,16.4,0,32.8,0,49.2C110.88,155.34,110.84,155.72,110.82,156.17Z"/><path d="M330.12,128.7c-.34.57-.6,1-.82,1.37q-6.78,12.54-13.53,25.1a1.7,1.7,0,0,1-1.74,1.08c-6.72,0-13.44,0-20.16,0h-1.28L317.24,117,292.82,77.69a10.27,10.27,0,0,1,1-.1c7.36,0,14.72,0,22.08,0a1.51,1.51,0,0,1,1.55,1q6.39,12.08,12.83,24.12c.28.51.57,1,1,1.75,1-1.82,1.8-3.39,2.63-5l11-20.9c.28-.54.51-1,1.3-1,7.32,0,14.64,0,22,0,.12,0,.23,0,.52.08-.24.43-.44.79-.66,1.14q-11.55,18.3-23.14,36.57a1.71,1.71,0,0,0,0,2.13q11.4,18.53,22.74,37.09c.29.47.56.94.93,1.56-.56,0-.94.07-1.32.07-6.92,0-13.84,0-20.76,0a1.73,1.73,0,0,1-1.76-1.05q-6.9-12.67-13.87-25.32C330.62,129.54,330.42,129.21,330.12,128.7Z"/><path d="M531.35,42.25c-4.41-4.44-8.75-8.81-13.1-13.17-5.73-5.75-11.5-11.46-17.19-17.25A6.64,6.64,0,0,1,499.6,4.1,7,7,0,0,1,506.49,0,7.29,7.29,0,0,1,511,2.29q17.32,17.3,34.62,34.62c3.06,3.08,3.1,6.55.29,9.84-.31.37-.65.71-1,1-11,11-21.92,22-32.95,32.89a13.85,13.85,0,0,1-4.2,2.86c-2.55,1.09-4.88.24-6.77-1.67s-2.68-4.23-1.64-6.8a11.46,11.46,0,0,1,2.39-3.67Q515.13,57.9,528.64,44.5A34.42,34.42,0,0,1,531.35,42.25Z"/><path d="M489.09,42.1c-.73-.78-1.42-1.55-2.15-2.29q-12.6-12.6-25.19-25.19c-.93-.93-1.87-1.86-2.76-2.83a6.92,6.92,0,0,1-1-8.51,7,7,0,0,1,7.72-3,8.28,8.28,0,0,1,3.1,1.93q17.57,17.46,35,35a6.37,6.37,0,0,1,.41,9.07c-.28.34-.58.66-.89,1q-17,17-34,34c-3,3-6.31,3.53-9.26,1.53a6.76,6.76,0,0,1-1.51-10.23c.94-1.13,2-2.17,3.06-3.21l26.72-26.54C488.61,42.63,488.82,42.39,489.09,42.1Z"/></g></g></svg>