<svg xmlns="http://www.w3.org/2000/svg" viewBox="0 0 264.74 172.76"><defs><style>.cls-1{fill:#fff;}</style></defs><title>SingleLogo</title><g id="Layer_2" data-name="Layer 2"><g id="Layer_1_copy" data-name="Layer 1 copy"><path d="M43.85,94.36a17.7,17.7,0,0,0,9.63,0c.17,20.74,0,41.4.86,62.39L119,106.87l-40-34L85.86,66,94,72.9l53.84,45.75c.4.34.81.66,1.23,1,3.51,2.56,6.87,2.63,10.37,0,2.49-1.88,4.81-4,7.19-6L243.87,48c.72-.61,1.53-1.14,2.51-1.86a2.7,2.7,0,0,0-2.3-.58H101.78a18.14,18.14,0,0,0-.9-9.92h21q60.72,0,121.44,0a28.9,28.9,0,0,1,7.68,1,19.17,19.17,0,0,1,13.72,18.37q0,48.78,0,97.57c0,11.64-8.44,20.07-20.08,20.08q-86.52.06-173,.06a70.65,70.65,0,0,1-12.18-.65A18.56,18.56,0,0,1,43.87,153.5c-.12-19.4-.08-38.8-.11-58.2C43.76,95,43.81,94.76,43.85,94.36Zm18.9,68.23H245.8L182,113.33l-.93.76c-4.82,4.08-9.63,8.18-14.46,12.25a20.13,20.13,0,0,1-10.44,5c-5,.64-9.29-1.14-13.11-4.15-3.08-2.43-6-5-9-7.55q-3.75-3.17-7.49-6.35ZM254.52,51.7l-64.93,55.17L254.52,157Z"/><path d="M32.32,42.21c-.7-.73-1.22-1.29-1.75-1.82Q16.68,26.46,2.78,12.54A8.29,8.29,0,0,1,.2,8,6.62,6.62,0,0,1,3.72.92a6.46,6.46,0,0,1,8,1.09q17.54,17.51,35,35c3.11,3.11,3.09,6.84,0,10Q29.44,64.37,12.09,81.7c-2,2-4.33,2.92-7.09,2a6.89,6.89,0,0,1-4.92-5.8A6.76,6.76,0,0,1,2.22,72c1.47-1.53,2.95-3,4.46-4.53Q18.8,55.44,30.94,43.41C31.34,43,31.78,42.68,32.32,42.21Z"/><path d="M74.66,42.12a11.81,11.81,0,0,1-1.23-.95Q59.33,27.1,45.26,13a19.79,19.79,0,0,1-1.46-1.58,6.66,6.66,0,0,1,.53-9.49,6.74,6.74,0,0,1,9.51.1c.71.65,1.39,1.32,2.06,2q16,16,32,32c4.31,4.31,4.31,7.64,0,11.92l-33,33a9.36,9.36,0,0,1-4.73,2.89,6.44,6.44,0,0,1-6.73-2.69,6.12,6.12,0,0,1-.61-7A11.91,11.91,0,0,1,45,71.3Q58.53,57.69,72.15,44.17C72.82,43.5,73.62,43,74.66,42.12Z"/><path class="cls-1" d="M62.75,162.59l63.81-49.27q3.75,3.2,7.49,6.35c3,2.52,5.93,5.12,9,7.55,3.82,3,8.11,4.79,13.11,4.15a20.13,20.13,0,0,0,10.44-5c4.83-4.07,9.64-8.17,14.46-12.25l.93-.76,63.8,49.26Z"/><path class="cls-1" d="M254.52,51.7V157l-64.93-50.17Z"/></g></g></svg>