<svg xmlns="http://www.w3.org/2000/svg" viewBox="0 0 264.75 172.74"><title>Logo</title><g id="Layer_2" data-name="Layer 2"><g id="Layer_1_copy" data-name="Layer 1 copy"><path d="M246.4,46.07a7.45,7.45,0,0,0-1.17-.47,6.48,6.48,0,0,0-1.08,0H101.74a18.23,18.23,0,0,0-.83-9.92c.51,0,.89-.08,1.26-.08q71,0,142,0c9.54,0,17.35,5.54,19.75,14.13a25,25,0,0,1,.86,6.62q.06,48.1,0,96.23c0,11.2-7.83,19.59-19,20-7.63.28-15.27.1-22.9.13h-158c-5.89,0-11.21-1.62-15.47-5.91a18.65,18.65,0,0,1-5.51-13.41c-.09-19.48-.06-39-.07-58.43,0-.16,0-.32.05-.62a18.41,18.41,0,0,0,9.72.09c.12,20.75-.07,41.39.82,62.33l64.61-49.91L79,72.92l6.87-6.86c.11.09.45.34.77.62l61,51.79c.36.31.73.62,1.11.91,3.66,2.8,7.23,2.88,10.87.06,2.49-1.93,4.86-4,7.27-6.08l65-55.21c4-3.37,7.92-6.74,11.89-10.09C244.51,47.42,245.34,46.86,246.4,46.07Zm-.52,116.57L182,113.29c-2.35,2-4.62,3.93-6.91,5.86-3.37,2.83-6.66,5.75-10.15,8.43-3.72,2.85-7.93,4.43-12.75,3.74a19.34,19.34,0,0,1-9.45-4.38c-2.77-2.24-5.45-4.58-8.17-6.88l-8-6.77L62.61,162.64Zm-56.33-55.8L254.48,157V51.68Z"/><path d="M74.43,42.25,61.34,29.08c-5.74-5.75-11.5-11.46-17.2-17.25A6.64,6.64,0,0,1,42.69,4.1,7,7,0,0,1,49.58,0,7.29,7.29,0,0,1,54.1,2.29q17.33,17.3,34.62,34.62c3.06,3.08,3.1,6.55.29,9.84-.31.37-.65.71-1,1-11,11-21.93,22-32.95,32.89a14,14,0,0,1-4.2,2.86c-2.55,1.09-4.88.24-6.77-1.67s-2.68-4.23-1.64-6.8a11.43,11.43,0,0,1,2.38-3.67Q58.22,57.9,71.72,44.5C72.54,43.69,73.49,43,74.43,42.25Z"/><path d="M32.17,42.1c-.73-.78-1.41-1.55-2.15-2.29L4.84,14.62c-.93-.93-1.87-1.86-2.76-2.83a6.92,6.92,0,0,1-1-8.51,7,7,0,0,1,7.72-3,8.44,8.44,0,0,1,3.1,1.93q17.57,17.46,35,35a6.37,6.37,0,0,1,.41,9.07,11.49,11.49,0,0,1-.88,1q-17,17-34,34c-3,3-6.31,3.53-9.26,1.53A6.75,6.75,0,0,1,1.7,72.6c.94-1.13,2-2.17,3.06-3.21L31.48,42.85C31.7,42.63,31.91,42.39,32.17,42.1Z"/></g></g></svg>